# AST/ASF file generated using VICON BodyLanguage
# -----------------------------------------------
:version 1.10
:name VICON
:units
  mass 1.0
  length 0.45
  angle deg
:documentation
   .ast/.asf automatically generated from VICON data using
   VICON BodyBuilder and BodyLanguage model FoxedUp or BRILLIANT.MOD
:root
   order TX TY TZ RX RY RZ
   axis XYZ
   position 0 0 0  
   orientation 0 0 0 
:bonedata
  begin
     id 1 
     name lhipjoint
     direction 0.61886 -0.69539 0.365302 
     length 2.20474 
     axis 0 0 0  XYZ
  end
  begin
     id 2 
     name lfemur
     direction 0.34202 -0.939693 0  
     length 6.65149  
     axis 0 0 20  XYZ
    dof rx ry rz
    limits (-160.0 20.0)
           (-70.0 70.0)
           (-60.0 70.0)
  end
  begin
     id 3 
     name ltibia
     direction 0.34202 -0.939693 0   
     length 6.35814   
     axis 0 0 20   XYZ
    dof rx
    limits (-10.0 170.0)
  end
  begin
     id 4 
     name lfoot
     direction 0.101224 -0.278109 0.955201   
     length 2.18766   
     axis -90 7.62852e-016 20   XYZ
    dof rx rz
    limits (-45.0 90.0)
           (-70.0 20.0)
  end
  begin
     id 5 
     name ltoes
     direction 1.53524e-011 -4.21877e-011 1   
     length 1.09206   
     axis -90 7.62852e-016 20   XYZ
    dof rx
    limits (-90.0 20.0)
  end
  begin
     id 6 
     name rhipjoint
     direction -0.600207 -0.708087 0.371972   
     length 2.1652  
     axis 0 0 0  XYZ 
  end
  begin
     id 7 
     name rfemur
     direction -0.34202 -0.939693 0   
     length 6.54691   
     axis 0 0 -20   XYZ
    dof rx ry rz
    limits (-160.0 20.0)
           (-70.0 70.0)
           (-70.0 60.0)
  end
  begin
     id 8 
     name rtibia
     direction -0.34202 -0.939693 0   
     length 6.37474   
     axis 0 0 -20   XYZ
    dof rx
    limits (-10.0 170.0)
 end
 begin
     id 9 
     name rfoot
     direction -0.111266 -0.3057 0.945604   
     length 2.00903  
     axis -90 -7.62852e-016 -20   XYZ
    dof rx rz
    limits (-45.0 90.0)
           (-20.0 70.0)
  end
  begin
     id 10 
     name rtoes
     direction -1.5362e-011 -4.21913e-011 1   
     length 1.00221   
     axis -90 -7.62852e-016 -20   XYZ
    dof rx
    limits (-90.0 20.0)
  end
  begin
     id 11 
     name lowerback
     direction -0.0224561 0.999731 -0.00577314   
     length 2.10409   
     axis 0 0 0   XYZ
    dof rx ry rz
    limits (-20.0 45.0)
           (-30.0 30.0)
           (-30.0 30.0)
  end
  begin
     id 12 
     name upperback
     direction 0.0213126 0.999185 -0.0342817   
     length 2.09783   
     axis 0 0 0   XYZ
    dof rx ry rz
    limits (-20.0 45.0)
           (-30.0 30.0)
           (-30.0 30.0)
  end
  begin
     id 13 
     name thorax
     direction 0.0312356 0.999036 -0.0308451   
     length 2.09788   
     axis 0 0 0   XYZ
    dof rx ry rz
    limits (-20.0 45.0)
           (-30.0 30.0)
           (-30.0 30.0)
  end
  begin
     id 14 
     name lowerneck
     direction -0.0114419 0.996481 0.0830329   
     length 1.38575   
     axis 0 0 0   XYZ
    dof rx ry rz
    limits (-20.0 45.0)
           (-30.0 30.0)
           (-30.0 30.0)
  end
  begin
     id 15 
     name upperneck
     direction -0.0075675 0.996187 -0.0869092   
     length 1.39401   
     axis 0 0 0   XYZ
    dof rx ry rz
    limits (-20.0 45.0)
           (-30.0 30.0)
           (-30.0 30.0)
  end
  begin
     id 16
     name head
     direction -0.00222073 0.999264 -0.0382974  
     length 1.3964  
     axis 0 0 0   XYZ
    dof rx ry rz
    limits (-20.0 45.0)
           (-30.0 30.0)
           (-30.0 30.0)
  end
  begin
     id 17 
     name lclavicle
     direction 0.965962 0.222138 0.132556  
     length 2.81514  
     axis 0 0 0   XYZ
    dof ry rz
    limits (-20.0 10.0)
           (0.0 20.0)
  end
  begin
     id 18 
     name lhumerus
     direction 1 -4.48972e-011 7.03471e-018   
     length 4.47366   
     axis 180 -30 -90   XYZ
    dof rx ry rz
    limits (-60.0 90.0)
           (-90.0 90.0)
           (-90.0 90.0)
  end
  begin
     id 19
     name lradius
     direction 1 -4.48951e-011 -6.22192e-028   
     length 3.19948   
     axis 180 -30 -90   XYZ
    dof rx
    limits (-10.0 170.0)
  end
  begin
     id 20
     name lwrist
     direction 1 -4.48967e-011 -1.24264e-027   
     length 1.59974   
     axis 1.40095e-015 90 90   XYZ
    dof ry
    limits (-180.0 0.0)
 end
  begin
     id 21 
     name lhand
     direction 1 -4.4897e-011 -2.48528e-027   
     length 0.492667   
     axis 1.58582e-015 90 90   XYZ
    dof rx rz
    limits (-90.0 90.0)
           (-45.0 45.0)
  end
  begin
     id 22 
     name lfingers
     direction 1 -4.48996e-011 -4.97056e-027   
     length 0.397201   
     axis 3.17164e-015 90 90   XYZ
    dof rx
    limits (0.0 90.0)
  end
  begin
     id 23
     name lthumb
     direction 0.707107 -6.34981e-011 0.707107   
     length 0.570303   
     axis -90 45 2.85299e-015   XYZ
    dof rx rz
    limits (-45.0 45.0)
           (-45.0 45.0)
  end
  begin
     id 24 
     name rclavicle
     direction -0.961164 0.229034 0.153972   
     length 3.09348  
     axis 0 0 0   XYZ 
    dof ry rz
    limits (-10.0 20.0)
           (-20.0 0.0)
  end
  begin
     id 25 
     name rhumerus
     direction -1 -4.48971e-011 -9.06263e-028  
     length 4.3269   
     axis 180 30 90   XYZ
    dof rx ry rz
    limits (-90.0 60.0)
           (-90.0 90.0)
           (-90.0 90.0)
  end
  begin
     id 26 
     name rradius
     direction -1 -4.48953e-011 1.44659e-027   
     length 3.1896   
     axis 180 30 90   XYZ
    dof rx
    limits (-10.0 170.0)
  end
  begin
     id 27 
     name rwrist
     direction -1 -4.48988e-011 -1.24264e-027   
     length 1.5948   
     axis 1.40095e-015 -90 -90   XYZ
    dof ry
    limits (-180.0 0.0)
  end
  begin
     id 28
     name rhand
     direction -1 -4.49033e-011 -2.48528e-027   
     length 0.464496   
     axis 1.58582e-015 -90 -90   XYZ
    dof rx rz
    limits (-90.0 90.0)
           (-45.0 45.0)
  end
  begin
     id 29
     name rfingers
     direction -1 -4.48905e-011 -4.97056e-027   
     length 0.374489   
     axis 3.17164e-015 -90 -90   XYZ
    dof rx
    limits (0.0 90.0)
  end
  begin
     id 30
     name rthumb
     direction -0.707107 -6.34909e-011 0.707107   
     length 0.537693   
     axis -90 -45 -2.85299e-015   XYZ
    dof rx rz
    limits (-45.0 45.0)
           (-45.0 45.0)
  end
:hierarchy
  begin
    root lhipjoint rhipjoint lowerback
    lhipjoint lfemur
    lfemur ltibia
    ltibia lfoot
    lfoot ltoes
    rhipjoint rfemur
    rfemur rtibia
    rtibia rfoot
    rfoot rtoes
    lowerback upperback
    upperback thorax
    thorax lowerneck lclavicle rclavicle
    lowerneck upperneck
    upperneck head
    lclavicle lhumerus
    lhumerus lradius
    lradius lwrist
    lwrist lhand lthumb
    lhand lfingers
    rclavicle rhumerus
    rhumerus rradius
    rradius rwrist
    rwrist rhand rthumb
    rhand rfingers
  end

#!OML:ASF G:\acrobat\cartwheel_test 2\Patient 1\Session 2\acrobat4.ASF
:FULLY-SPECIFIED
:DEGREES
1
root 6.68245 15.1386 -16.8198 4.0077 1.16388 5.47217
lowerback -4.51502 -0.768466 -6.57977
upperback -8.06206 -0.981921 0.0211761
thorax -5.79727 -0.104405 3.70757
lowerneck -17.8399 -3.83101 -4.37999
upperneck -12.0658 -3.93978 7.07561
head -0.65265 -1.7306 2.87637
rclavicle -3.67752e-015 1.98785e-014
rhumerus 60.31 -43.9972 -27.4947
rradius 99.6655
rwrist 9.16218
rhand -33.1624 -41.5912
rfingers 7.12502
rthumb -6.37099 -71.4754
lclavicle -3.67752e-015 1.98785e-014
lhumerus 58.2891 40.0186 31.3441
lradius 109.465
lwrist 10.695
lhand -52.5396 -16.6943
lfingers 7.12502
lthumb -25.0247 11.6865
rfemur -3.61741 23.2152 13.0503
rtibia 27.5005
rfoot -35.4838 -42.382
rtoes 13.9035
lfemur -5.8087 -3.81399 -20.4007
ltibia 25.1231
lfoot -17.3521 26.893
ltoes -28.8991
2
root 6.68336 15.14 -16.8186 3.98876 1.18005 5.5078
lowerback -4.52846 -0.809753 -6.62728
upperback -8.09423 -1.03619 0.0399027
thorax -5.81816 -0.126597 3.75398
lowerneck -18.0284 -3.87957 -4.58133
upperneck -11.7245 -3.97434 7.1867
head -0.498007 -1.73343 2.94387
rclavicle 8.05078e-015 -2.46493e-014
rhumerus 60.3916 -43.8437 -27.6166
rradius 99.6567
rwrist 9.25801
rhand -33.4089 -41.201
rfingers 7.12502
rthumb -6.60896 -71.0779
lclavicle 8.05078e-015 -2.46493e-014
lhumerus 58.2007 39.9784 31.2709
lradius 109.46
lwrist 10.6234
lhand -52.6736 -16.3217
lfingers 7.12502
lthumb -25.1531 12.0411
rfemur -3.59237 23.1984 13.0238
rtibia 27.524
rfoot -35.3725 -42.4152
rtoes 13.8945
lfemur -5.7599 -3.77878 -20.4327
ltibia 25.076
lfoot -17.417 26.752
ltoes -28.5355
3
root 6.68718 15.1415 -16.8201 3.99675 1.10718 5.5222
lowerback -4.52307 -0.789034 -6.58766
upperback -8.15091 -1.01165 0.0377267
thorax -5.88529 -0.113215 3.72993
lowerneck -18.1793 -3.97517 -5.12037
upperneck -11.4627 -3.99887 7.58772
head -0.358847 -1.71678 3.17861
rclavicle -1.0635e-014 -3.97569e-016
rhumerus 60.4579 -43.7588 -27.6879
rradius 99.5978
rwrist 9.36772
rhand -33.7484 -40.4607
rfingers 7.12502
rthumb -6.93666 -70.327
lclavicle -1.0635e-014 -3.97569e-016
lhumerus 58.0874 39.8614 31.1305
lradius 109.485
lwrist 10.4631
lhand -52.6653 -16.7836
lfingers 7.12502
lthumb -25.1451 11.5804
rfemur -3.65493 23.0219 12.9248
rtibia 27.5157
rfoot -34.9883 -42.2949
rtoes 13.48
lfemur -5.74809 -3.93903 -20.4852
ltibia 25.0695
lfoot -17.4385 26.9234
ltoes -28.2146
4
root 6.68983 15.1408 -16.8208 4.00999 1.02968 5.53512
lowerback -4.54152 -0.75273 -6.55783
upperback -8.1834 -0.963896 0.0240447
thorax -5.91551 -0.0899223 3.69868
lowerneck -18.264 -4.08146 -5.80289
upperneck -11.3903 -4.00174 8.10728
head -0.287375 -1.68512 3.49003
rclavicle -1.78906e-015 -1.23246e-014
rhumerus 60.449 -43.7186 -27.7164
rradius 99.5507
rwrist 9.27817
rhand -33.5061 -40.0094
rfingers 7.12502
rthumb -6.70276 -69.8833
lclavicle -1.78906e-015 -1.23246e-014
lhumerus 58.0993 39.7897 31.0748
lradius 109.482
lwrist 10.43
lhand -51.8926 -19.3628
lfingers 7.12502
lthumb -24.4046 9.10294
rfemur -3.71031 22.8996 12.845
rtibia 27.5062
rfoot -34.8674 -42.1297
rtoes 13.1769
lfemur -5.74702 -4.02414 -20.5386
ltibia 25.0729
lfoot -17.2653 27.1936
ltoes -28.6286
5
root 6.69005 15.1412 -16.8201 3.99933 1.00816 5.49844
lowerback -4.56526 -0.728337 -6.51236
upperback -8.1888 -0.930703 0.00726046
thorax -5.91156 -0.0766733 3.6552
lowerneck -18.2186 -4.09206 -5.97435
upperneck -11.46 -3.98055 8.21843
head -0.312153 -1.66818 3.56511
rclavicle -1.11319e-014 -3.18055e-015
rhumerus 60.3489 -43.7845 -27.6615
rradius 99.5511
rwrist 8.91111
rhand -32.9305 -40.1077
rfingers 7.12502
rthumb -6.14715 -69.9985
lclavicle -1.11319e-014 -3.18055e-015
lhumerus 58.2953 39.7519 31.191
lradius 109.433
lwrist 10.5256
lhand -51.7475 -19.9764
lfingers 7.12502
lthumb -24.2655 8.50799
rfemur -3.69681 22.9805 12.8965
rtibia 27.4869
rfoot -34.9423 -42.1573
rtoes 13.3109
lfemur -5.73078 -4.06017 -20.5129
ltibia 25.0896
lfoot -17.2432 27.306
ltoes -28.9629
6
root 6.68954 15.1396 -16.8197 3.95406 0.976214 5.42751
lowerback -4.53424 -0.696153 -6.43524
upperback -8.21333 -0.892249 -0.0087174
thorax -5.95983 -0.0605022 3.59562
lowerneck -18.1564 -4.0685 -5.9381
upperneck -11.4415 -3.95971 8.21442
head -0.318306 -1.66019 3.5584
rclavicle 2.28602e-015 2.78299e-015
rhumerus 60.1872 -43.9056 -27.5375
rradius 99.6064
rwrist 8.64296
rhand -32.8611 -40.5584
rfingers 7.12502
rthumb -6.08016 -70.4512
lclavicle 2.28602e-015 2.78299e-015
lhumerus 58.5026 39.6794 31.3276
lradius 109.375
lwrist 10.6273
lhand -52.7696 -17.4889
lfingers 7.12502
lthumb -25.245 10.861
rfemur -3.65611 23.1125 13.0057
rtibia 27.4695
rfoot -34.7935 -42.362
rtoes 13.3312
lfemur -5.69056 -4.02636 -20.4331
ltibia 25.1023
lfoot -17.2499 27.2891
ltoes -29.0307
7
root 6.68874 15.139 -16.8192 3.92555 0.925727 5.40699
lowerback -4.52509 -0.67274 -6.40718
upperback -8.23058 -0.863566 -0.03047
thorax -5.98696 -0.0474147 3.55714
lowerneck -18.1314 -4.00751 -5.65371
upperneck -11.4066 -3.93812 8.01955
head -0.325029 -1.66228 3.43585
rclavicle -7.35503e-015 -1.35174e-014
rhumerus 60.053 -43.9977 -27.4557
rradius 99.6502
rwrist 8.64669
rhand -33.0394 -40.6596
rfingers 7.12502
rthumb -6.25226 -70.5473
lclavicle -7.35503e-015 -1.35174e-014
lhumerus 58.6309 39.6574 31.3392
lradius 109.327
lwrist 10.7053
lhand -53.3344 -15.915
lfingers 7.12502
lthumb -25.7861 12.3575
rfemur -3.63847 23.1247 13.0291
rtibia 27.4498
rfoot -34.5871 -42.429
rtoes 13.1712
lfemur -5.66486 -3.91402 -20.3942
ltibia 25.1123
lfoot -17.3288 27.1445
ltoes -28.7188
8
root 6.68776 15.1413 -16.8185 3.92282 0.901289 5.43488
lowerback -4.55575 -0.676807 -6.42673
upperback -8.20193 -0.86629 -0.0475537
thorax -5.93846 -0.0504993 3.54964
lowerneck -17.8202 -3.74592 -4.39463
upperneck -11.8879 -3.84336 6.85843
head -0.607395 -1.6829 2.80786
rclavicle 4.57205e-015 9.54166e-015
rhumerus 60.0296 -44.058 -27.5047
rradius 99.6949
rwrist 8.84557
rhand -33.1228 -40.5752
rfingers 7.12502
rthumb -6.33276 -70.4606
lclavicle 4.57205e-015 9.54166e-015
lhumerus 58.6536 39.7425 31.2078
lradius 109.321
lwrist 10.7082
lhand -53.4376 -15.3456
lfingers 7.12502
lthumb -25.8848 12.9125
rfemur -3.61678 23.1074 12.999
rtibia 27.4319
rfoot -34.7898 -42.2412
rtoes 13.5337
lfemur -5.65841 -3.94739 -20.4118
ltibia 25.1189
lfoot -17.5364 27.0679
ltoes -28.0914
9
root 6.68653 15.1416 -16.8177 3.91135 0.861946 5.42227
lowerback -4.55694 -0.686494 -6.41864
upperback -8.17577 -0.876843 -0.0137307
thorax -5.90789 -0.0567022 3.58055
lowerneck -18.1031 -3.81119 -4.54162
upperneck -11.7253 -3.8947 7.01732
head -0.497336 -1.69539 2.88212
rclavicle -3.67752e-015 3.97569e-015
rhumerus 60.114 -44.0432 -27.6536
rradius 99.7788
rwrist 9.07863
rhand -33.2351 -40.6003
rfingers 7.12502
rthumb -6.44119 -70.4823
lclavicle -3.67752e-015 3.97569e-015
lhumerus 58.5539 39.8568 31.0561
lradius 109.329
lwrist 10.6345
lhand -53.6442 -14.732
lfingers 7.12502
lthumb -26.0827 13.4971
rfemur -3.59383 23.1398 13.0213
rtibia 27.4234
rfoot -35.0648 -42.102
rtoes 13.8469
lfemur -5.64166 -3.92558 -20.391
ltibia 25.1169
lfoot -17.542 27.0741
ltoes -27.892
10
root 6.68537 15.1407 -16.8172 3.89665 0.823214 5.35447
lowerback -4.54016 -0.681893 -6.3501
upperback -8.17471 -0.870673 0.0270084
thorax -5.91613 -0.0560471 3.58516
lowerneck -17.9853 -3.82226 -4.78389
upperneck -12.0503 -3.84781 7.27884
head -0.615163 -1.66492 3.02598
rclavicle 1.05356e-014 -8.74653e-015
rhumerus 60.0384 -44.0682 -27.5625
rradius 99.906
rwrist 9.08901
rhand -33.3183 -40.4655
rfingers 7.12502
rthumb -6.52146 -70.3451
lclavicle 1.05356e-014 -8.74653e-015
lhumerus 58.5486 39.9418 31.0893
lradius 109.307
lwrist 10.6418
lhand -53.6788 -15.1734
lfingers 7.12502
lthumb -26.1159 13.0508
rfemur -3.59502 23.154 13.0963
rtibia 27.422
rfoot -34.9932 -42.1581
rtoes 13.5487
lfemur -5.61583 -3.83547 -20.3124
ltibia 25.1171
lfoot -17.487 27.0439
ltoes -27.8783
11
root 6.68494 15.1386 -16.8179 3.89286 0.805489 5.3648
lowerback -4.54716 -0.677017 -6.32171
upperback -8.17341 -0.865184 -0.00417247
thorax -5.91147 -0.0563166 3.53639
lowerneck -17.6694 -3.75412 -4.88005
upperneck -12.5831 -3.72149 7.48558
head -0.845138 -1.60643 3.13414
rclavicle 2.78299e-015 -1.47101e-014
rhumerus 59.857 -44.1165 -27.4057
rradius 100.033
rwrist 9.07542
rhand -33.37 -40.4997
rfingers 7.12502
rthumb -6.57143 -70.3777
lclavicle 2.78299e-015 -1.47101e-014
lhumerus 58.7138 40.0133 31.2652
lradius 109.279
lwrist 10.8063
lhand -53.3942 -16.2764
lfingers 7.12502
lthumb -25.8433 11.9878
rfemur -3.61403 23.0425 13.066
rtibia 27.4247
rfoot -34.7199 -42.1436
rtoes 13.3341
lfemur -5.61667 -3.71947 -20.3192
ltibia 25.123
lfoot -17.4987 27.0121
ltoes -28.1133
12
root 6.68486 15.1352 -16.8189 3.89866 0.79729 5.45684
lowerback -4.56956 -0.669734 -6.36107
upperback -8.17224 -0.857022 -0.0845413
thorax -5.8994 -0.0532002 3.47371
lowerneck -17.5477 -3.70548 -4.84026
upperneck -12.8087 -3.65267 7.59717
head -0.943062 -1.57706 3.17436
rclavicle 7.25564e-015 -2.38542e-015
rhumerus 59.7565 -44.2075 -27.3693
rradius 100.071
rwrist 9.18866
rhand -33.3357 -40.8959
rfingers 7.12502
rthumb -6.53829 -70.775
lclavicle 7.25564e-015 -2.38542e-015
lhumerus 58.9085 40.0295 31.4129
lradius 109.289
lwrist 10.9413
lhand -53.1857 -16.7967
lfingers 7.12502
lthumb -25.6436 11.4964
rfemur -3.64927 22.8712 12.9335
rtibia 27.4368
rfoot -34.5341 -42.0343
rtoes 13.3032
lfemur -5.62264 -3.71901 -20.4249
ltibia 25.1175
lfoot -17.6211 27.0716
ltoes -28.177
